<?xml version="1.0" encoding="UTF-8"?>
<!DOCTYPE svg PUBLIC "-//W3C//DTD SVG 1.1//EN" "http://www.w3.org/Graphics/SVG/1.1/DTD/svg11.dtd">
<svg xmlns="http://www.w3.org/2000/svg" version="1.1" width="96px" height="96px" style="shape-rendering:geometricPrecision; text-rendering:geometricPrecision; image-rendering:optimizeQuality; fill-rule:evenodd; clip-rule:evenodd" xmlns:xlink="http://www.w3.org/1999/xlink">
<g><path style="opacity:0.968" fill="#17183e" d="M 61.5,18.5 C 59.139,18.3259 56.8056,17.9926 54.5,17.5C 52.6822,15.4197 50.3489,14.0864 47.5,13.5C 41.2925,16.8632 34.9591,20.0299 28.5,23C 24.3121,24.6307 19.9788,25.4641 15.5,25.5C 15.335,28.8499 15.5017,32.1832 16,35.5C 17.8313,42.8165 19.3313,50.1498 20.5,57.5C 18.396,57.7989 16.396,57.4656 14.5,56.5C 9.85382,45.9562 8.02048,34.9562 9,23.5C 9.46524,22.0692 10.2986,20.9025 11.5,20C 22.8878,18.1382 33.2211,13.8049 42.5,7C 51.2625,5.22125 57.9292,8.05459 62.5,15.5C 62.315,16.5837 61.9817,17.5837 61.5,18.5 Z"/></g>
<g><path style="opacity:0.964" fill="#9af57f" d="M 54.5,17.5 C 56.8056,17.9926 59.139,18.3259 61.5,18.5C 63.5313,20.5224 65.8646,22.1891 68.5,23.5C 69.391,24.1098 70.391,24.4431 71.5,24.5C 71.8417,25.3382 72.5084,25.6716 73.5,25.5C 75.2504,26.8698 77.2504,27.8698 79.5,28.5C 79.0552,52.7454 68.3885,70.7454 47.5,82.5C 38.6452,78.3073 31.3118,72.3073 25.5,64.5C 21.0733,53.9398 19.24,42.9398 20,31.5C 20.6708,30.7476 21.5041,30.4142 22.5,30.5C 22.3007,49.2652 29.9674,64.0985 45.5,75C 46.8333,75.6667 48.1667,75.6667 49.5,75C 63.5026,65.1411 71.5026,51.6411 73.5,34.5C 73.6102,32.626 72.9436,31.126 71.5,30C 63.1872,28.3419 55.8539,24.8419 49.5,19.5C 50.7804,18.0687 52.4471,17.4021 54.5,17.5 Z"/></g>
<g><path style="opacity:0.989" fill="#1b1d40" d="M 86.5,29.5 C 84.5177,54.312 73.1844,73.4786 52.5,87C 50.26,87.977 47.9267,88.477 45.5,88.5C 35.2216,84.3922 27.2216,77.5589 21.5,68C 21.8178,65.6249 23.1511,64.4583 25.5,64.5C 31.3118,72.3073 38.6452,78.3073 47.5,82.5C 68.3885,70.7454 79.0552,52.7454 79.5,28.5C 79.5,27.5 79.5,26.5 79.5,25.5C 77.5,25.5 75.5,25.5 73.5,25.5C 73.1583,24.6618 72.4916,24.3284 71.5,24.5C 70.391,24.4431 69.391,24.1098 68.5,23.5C 68.2606,21.5328 68.5939,19.6995 69.5,18C 75.0829,17.5115 80.2496,18.6782 85,21.5C 86.2525,24.0135 86.7525,26.6802 86.5,29.5 Z"/></g>
<g><path style="opacity:0.998" fill="#1c1e40" d="M 49.5,19.5 C 55.8539,24.8419 63.1872,28.3419 71.5,30C 72.9436,31.126 73.6102,32.626 73.5,34.5C 71.5026,51.6411 63.5026,65.1411 49.5,75C 48.1667,75.6667 46.8333,75.6667 45.5,75C 29.9674,64.0985 22.3007,49.2652 22.5,30.5C 27.2331,28.2556 32.2331,26.5889 37.5,25.5C 38.3414,27.3792 38.6747,29.3792 38.5,31.5C 34.9014,32.6988 31.2347,33.6988 27.5,34.5C 29.0662,48.4757 35.3995,59.6423 46.5,68C 47.9078,68.3152 49.2411,67.9819 50.5,67C 59.6645,58.8427 65.3311,48.6761 67.5,36.5C 61.9298,33.7149 56.2631,30.8816 50.5,28C 48.0038,26.669 46.0038,24.8356 44.5,22.5C 44.5,21.5 44.5,20.5 44.5,19.5C 46.1667,19.5 47.8333,19.5 49.5,19.5 Z"/></g>
<g><path style="opacity:0.998" fill="#9dfa80" d="M 44.5,22.5 C 46.0038,24.8356 48.0038,26.669 50.5,28C 56.2631,30.8816 61.9298,33.7149 67.5,36.5C 65.3311,48.6761 59.6645,58.8427 50.5,67C 49.2411,67.9819 47.9078,68.3152 46.5,68C 35.3995,59.6423 29.0662,48.4757 27.5,34.5C 31.2347,33.6988 34.9014,32.6988 38.5,31.5C 38.6747,29.3792 38.3414,27.3792 37.5,25.5C 39.9538,24.7729 42.2872,23.7729 44.5,22.5 Z"/></g>
<g><path style="opacity:0.934" fill="#9df980" d="M 86.5,29.5 C 88.1703,29.7512 89.6703,30.4178 91,31.5C 92.6044,58.7591 81.7711,79.2591 58.5,93C 53.3488,93.7532 49.0154,92.2532 45.5,88.5C 47.9267,88.477 50.26,87.977 52.5,87C 73.1844,73.4786 84.5177,54.312 86.5,29.5 Z"/></g>
</svg>
